<svg width="148" height="42" viewBox="0 0 148 42" fill="none" xmlns="http://www.w3.org/2000/svg">
<path d="M42.8 23V6.2H58.568V23H53.864V8.912L54.92 9.968H46.448L47.48 8.912V23H42.8ZM62.1594 23V6.2H69.8394C71.3754 6.2 72.6954 6.448 73.7994 6.944C74.9194 7.44 75.7834 8.16 76.3914 9.104C76.9994 10.032 77.3034 11.136 77.3034 12.416C77.3034 13.68 76.9994 14.776 76.3914 15.704C75.7834 16.632 74.9194 17.352 73.7994 17.864C72.6954 18.36 71.3754 18.608 69.8394 18.608H64.7994L66.9114 16.544V23H62.1594ZM66.9114 17.048L64.7994 14.864H69.5514C70.5434 14.864 71.2794 14.648 71.7594 14.216C72.2554 13.784 72.5034 13.184 72.5034 12.416C72.5034 11.632 72.2554 11.024 71.7594 10.592C71.2794 10.16 70.5434 9.944 69.5514 9.944H64.7994L66.9114 7.76V17.048ZM87.9466 23.336C86.6026 23.336 85.3626 23.12 84.2266 22.688C83.0906 22.256 82.0986 21.648 81.2506 20.864C80.4186 20.064 79.7706 19.136 79.3066 18.08C78.8426 17.024 78.6106 15.864 78.6106 14.6C78.6106 13.336 78.8426 12.176 79.3066 11.12C79.7706 10.064 80.4186 9.144 81.2506 8.36C82.0986 7.56 83.0906 6.944 84.2266 6.512C85.3626 6.08 86.6026 5.864 87.9466 5.864C89.3066 5.864 90.5466 6.08 91.6666 6.512C92.8026 6.944 93.7866 7.56 94.6186 8.36C95.4506 9.144 96.0986 10.064 96.5626 11.12C97.0426 12.176 97.2826 13.336 97.2826 14.6C97.2826 15.864 97.0426 17.032 96.5626 18.104C96.0986 19.16 95.4506 20.08 94.6186 20.864C93.7866 21.648 92.8026 22.256 91.6666 22.688C90.5466 23.12 89.3066 23.336 87.9466 23.336ZM87.9466 19.4C88.5866 19.4 89.1786 19.288 89.7226 19.064C90.2826 18.84 90.7626 18.52 91.1626 18.104C91.5786 17.672 91.8986 17.16 92.1226 16.568C92.3626 15.976 92.4826 15.32 92.4826 14.6C92.4826 13.864 92.3626 13.208 92.1226 12.632C91.8986 12.04 91.5786 11.536 91.1626 11.12C90.7626 10.688 90.2826 10.36 89.7226 10.136C89.1786 9.912 88.5866 9.8 87.9466 9.8C87.3066 9.8 86.7066 9.912 86.1466 10.136C85.6026 10.36 85.1226 10.688 84.7066 11.12C84.3066 11.536 83.9866 12.04 83.7466 12.632C83.5226 13.208 83.4106 13.864 83.4106 14.6C83.4106 15.32 83.5226 15.976 83.7466 16.568C83.9866 17.16 84.3066 17.672 84.7066 18.104C85.1226 18.52 85.6026 18.84 86.1466 19.064C86.7066 19.288 87.3066 19.4 87.9466 19.4ZM104.191 12.704H111.991V16.256H104.191V12.704ZM104.527 19.328H113.311V23H99.8234V6.2H112.999V9.872H104.527V19.328ZM126.627 23L121.899 15.008L125.715 12.752L131.979 23H126.627ZM115.923 23V6.2H120.651V23H115.923ZM119.283 16.568V12.728H125.379V16.568H119.283ZM126.171 15.104L121.779 14.624L126.939 6.2H131.931L126.171 15.104ZM137.012 23V8.912L138.068 9.968H131.852V6.2H146.828V9.968H140.636L141.692 8.912V23H137.012Z" fill="white"/>
<path d="M45.4848 38V29.7104L45.9072 30.1504H42.0704V28.672H50.5888V30.1504H46.7696L47.1744 29.7104V38H45.4848ZM56.0576 38.1056C55.0603 38.1056 54.1803 37.9003 53.4176 37.4896C52.6667 37.0789 52.08 36.5157 51.6576 35.8C51.2469 35.0843 51.0416 34.2629 51.0416 33.336C51.0416 32.4091 51.2411 31.5877 51.64 30.872C52.0507 30.1563 52.608 29.5989 53.312 29.2C54.0277 28.7893 54.8315 28.584 55.7232 28.584C56.6267 28.584 57.4245 28.7835 58.1168 29.1824C58.8091 29.5813 59.3488 30.1445 59.736 30.872C60.1349 31.5877 60.3344 32.4267 60.3344 33.3888C60.3344 33.4592 60.3285 33.5413 60.3168 33.6352C60.3168 33.7291 60.3109 33.8171 60.2992 33.8992H52.3616V32.6848H59.4192L58.7328 33.1072C58.7445 32.5088 58.6213 31.9749 58.3632 31.5056C58.1051 31.0363 57.7472 30.6725 57.2896 30.4144C56.8437 30.1445 56.3216 30.0096 55.7232 30.0096C55.1365 30.0096 54.6144 30.1445 54.1568 30.4144C53.6992 30.6725 53.3413 31.0421 53.0832 31.5232C52.8251 31.9925 52.696 32.5323 52.696 33.1424V33.424C52.696 34.0459 52.8368 34.6032 53.1184 35.096C53.4117 35.5771 53.8165 35.9525 54.3328 36.2224C54.8491 36.4923 55.4416 36.6272 56.1104 36.6272C56.6619 36.6272 57.1605 36.5333 57.6064 36.3456C58.064 36.1579 58.4629 35.8763 58.8032 35.5008L59.736 36.592C59.3136 37.0848 58.7856 37.4603 58.152 37.7184C57.5301 37.9765 56.832 38.1056 56.0576 38.1056ZM61.2193 38L65.2321 32.7904L65.2145 33.6528L61.3953 28.672H63.2785L66.2001 32.5088H65.4785L68.4001 28.672H70.2481L66.3761 33.688L66.3937 32.7904L70.4417 38H68.5233L65.4433 33.9168L66.1297 34.0224L63.1025 38H61.2193ZM72.2196 38V28.672H73.9092V32.632H79.2244V28.672H80.914V38H79.2244V34.0928H73.9092V38H72.2196ZM88.1945 38.1056C87.2558 38.1056 86.4228 37.9003 85.6953 37.4896C84.9678 37.0789 84.3929 36.5157 83.9705 35.8C83.5481 35.0725 83.3369 34.2512 83.3369 33.336C83.3369 32.4091 83.5481 31.5877 83.9705 30.872C84.3929 30.1563 84.9678 29.5989 85.6953 29.2C86.4228 28.7893 87.2558 28.584 88.1945 28.584C89.1214 28.584 89.9486 28.7893 90.6761 29.2C91.4153 29.5989 91.9902 30.1563 92.4009 30.872C92.8233 31.576 93.0345 32.3973 93.0345 33.336C93.0345 34.2629 92.8233 35.0843 92.4009 35.8C91.9902 36.5157 91.4153 37.0789 90.6761 37.4896C89.9486 37.9003 89.1214 38.1056 88.1945 38.1056ZM88.1945 36.6272C88.7929 36.6272 89.3268 36.4923 89.7961 36.2224C90.2772 35.9525 90.6526 35.5712 90.9225 35.0784C91.1924 34.5739 91.3273 33.9931 91.3273 33.336C91.3273 32.6672 91.1924 32.0923 90.9225 31.6112C90.6526 31.1184 90.2772 30.7371 89.7961 30.4672C89.3268 30.1973 88.7929 30.0624 88.1945 30.0624C87.5961 30.0624 87.0622 30.1973 86.5929 30.4672C86.1236 30.7371 85.7481 31.1184 85.4665 31.6112C85.1849 32.0923 85.0441 32.6672 85.0441 33.336C85.0441 33.9931 85.1849 34.5739 85.4665 35.0784C85.7481 35.5712 86.1236 35.9525 86.5929 36.2224C87.0622 36.4923 87.5961 36.6272 88.1945 36.6272ZM93.8568 37.9824L93.9624 36.5568C94.0445 36.5685 94.1208 36.5803 94.1912 36.592C94.2616 36.6037 94.3261 36.6096 94.3848 36.6096C94.7602 36.6096 95.0536 36.4805 95.2648 36.2224C95.4877 35.9643 95.652 35.624 95.7576 35.2016C95.8632 34.7675 95.9394 34.2805 95.9864 33.7408C96.0333 33.2011 96.0685 32.6613 96.092 32.1216L96.2504 28.672H103.414V38H101.724V29.6576L102.129 30.1504H97.3416L97.7288 29.64L97.6056 32.2272C97.5704 33.0485 97.5058 33.8171 97.412 34.5328C97.3181 35.2485 97.1714 35.8763 96.972 36.416C96.7842 36.9557 96.5202 37.3781 96.18 37.6832C95.8514 37.9883 95.4232 38.1408 94.8952 38.1408C94.7426 38.1408 94.5784 38.1232 94.4024 38.088C94.2381 38.0645 94.0562 38.0293 93.8568 37.9824ZM110.676 38.1056C109.737 38.1056 108.904 37.9003 108.177 37.4896C107.449 37.0789 106.874 36.5157 106.452 35.8C106.029 35.0725 105.818 34.2512 105.818 33.336C105.818 32.4091 106.029 31.5877 106.452 30.872C106.874 30.1563 107.449 29.5989 108.177 29.2C108.904 28.7893 109.737 28.584 110.676 28.584C111.603 28.584 112.43 28.7893 113.157 29.2C113.897 29.5989 114.471 30.1563 114.882 30.872C115.305 31.576 115.516 32.3973 115.516 33.336C115.516 34.2629 115.305 35.0843 114.882 35.8C114.471 36.5157 113.897 37.0789 113.157 37.4896C112.43 37.9003 111.603 38.1056 110.676 38.1056ZM110.676 36.6272C111.274 36.6272 111.808 36.4923 112.277 36.2224C112.758 35.9525 113.134 35.5712 113.404 35.0784C113.674 34.5739 113.809 33.9931 113.809 33.336C113.809 32.6672 113.674 32.0923 113.404 31.6112C113.134 31.1184 112.758 30.7371 112.277 30.4672C111.808 30.1973 111.274 30.0624 110.676 30.0624C110.077 30.0624 109.543 30.1973 109.074 30.4672C108.605 30.7371 108.229 31.1184 107.948 31.6112C107.666 32.0923 107.525 32.6672 107.525 33.336C107.525 33.9931 107.666 34.5739 107.948 35.0784C108.229 35.5712 108.605 35.9525 109.074 36.2224C109.543 36.4923 110.077 36.6272 110.676 36.6272ZM117.956 38V28.672H124.82V30.1504H119.24L119.645 29.7632V38H117.956ZM126.549 38V28.672H128.239V35.4656L133.959 28.672H135.49V38H133.801V31.2064L128.098 38H126.549ZM144.736 38V34.7264L145 35.0432H142.026C140.782 35.0432 139.808 34.7792 139.104 34.2512C138.412 33.7232 138.066 32.9547 138.066 31.9456C138.066 30.8661 138.435 30.0507 139.174 29.4992C139.925 28.9477 140.923 28.672 142.166 28.672H146.25V38H144.736ZM137.978 38L140.512 34.4272H142.254L139.79 38H137.978ZM144.736 34.1984V29.6752L145 30.1504H142.219C141.445 30.1504 140.846 30.2971 140.424 30.5904C140.002 30.872 139.79 31.3413 139.79 31.9984C139.79 33.2187 140.577 33.8288 142.149 33.8288H145L144.736 34.1984Z" fill="white"/>
<path d="M0 9.46032L20 3V40H15V11.2222L5 14.1587V40H0V9.46032Z" fill="white"/>
<path d="M21 4L32 15.5V20.5L28.5 17.5V39.2163L25.5 39.5V15L21 10.5V4Z" fill="white"/>
<path d="M21 11.5747L25 15.5001V39.5001L21 40.0001V11.5747Z" fill="white" fill-opacity="0.5"/>
<path d="M6 14.9998L14 12.8428V39.9998H6V14.9998Z" fill="white" fill-opacity="0.5"/>
<path d="M29 18.5747L32 21.3027V38.8302L29 39.1786V18.5747Z" fill="white" fill-opacity="0.5"/>
</svg>
